<svg xmlns="http://www.w3.org/2000/svg" width="100%" height="100%" viewBox="0 0 800 600" preserveAspectRatio="xMidYMid slice">
  <rect fill="#f5f7fa" width="100%" height="100%" />

  <g fill="none" stroke="#8ab4f8" stroke-width="1.5" opacity="0.7" transform="translate(0, 0)">
    
    <g>
      <path d="M 50 100 L 150 100 L 150 50 L 250 50" />
      <path d="M 100 200 L 200 200 L 200 150 L 350 150" />
      <path d="M 300 50 L 300 100 L 400 100" />
      
      <path d="M 50 300 L 100 300 L 100 350 L 250 350 L 250 300 L 400 300" />
      <path d="M 450 100 L 450 250 L 500 250 L 500 350" />
      <path d="M 600 50 L 600 150 L 700 150 L 700 100" />

      <path d="M 50 500 L 150 500 L 150 450 L 300 450 L 300 550" />
      <path d="M 400 400 L 450 400 L 450 500 L 550 500" />
      <path d="M 600 550 L 600 400 L 700 400 L 700 350 L 750 350" />
      <path d="M 200 550 L 200 500" />
      <path d="M 550 200 L 650 200 L 650 300" />
    </g>

    <g fill="#8ab4f8" stroke="none">
      <circle cx="50" cy="100" r="3" />
      <circle cx="250" cy="50" r="3" />
      <circle cx="100" cy="200" r="3" />
      <circle cx="350" cy="150" r="3" />
      <circle cx="400" cy="100" r="3" />
      <circle cx="50" cy="300" r="3" />
      <circle cx="400" cy="300" r="3" />
      <circle cx="450" cy="100" r="3" />
      <circle cx="500" cy="350" r="3" />
      <circle cx="600" cy="50" r="3" />
      <circle cx="700" cy="100" r="3" />
      <circle cx="50" cy="500" r="3" />
      <circle cx="300" cy="550" r="3" />
      <circle cx="400" cy="400" r="3" />
      <circle cx="550" cy="500" r="3" />
      <circle cx="600" cy="550" r="3" />
      <circle cx="750" cy="350" r="3" />
      <circle cx="200" cy="550" r="3" />
      <circle cx="550" cy="200" r="3" />
      <circle cx="650" cy="300" r="3" />
    </g>
  </g>
</svg>